<svg width="689" height="727" viewBox="0 0 689 727" fill="none" xmlns="http://www.w3.org/2000/svg">
<path d="M476.497 24.2345C485.222 27.2299 492.269 30.4782 502.501 35.5609L384.266 275.37C368.39 267.382 350.928 264.541 331.691 265.091C304.445 266.584 284.044 282.561 266.876 300.14C258.844 308.963 253.715 319.752 250.438 331.14C250.097 332.314 249.755 333.487 249.403 334.695C245.786 349.008 246.615 364.126 250.501 378.265C250.714 379.062 250.926 379.859 251.145 380.68C252.818 386.719 256.832 394.968 260.907 401.398C262.422 404.124 265.095 407.765 265.095 407.765C207.066 452.02 153.668 502.242 96.0422 547.064C94.7283 548.089 93.4209 549.122 92.1149 550.156C82.1606 557.901 73.2082 560.537 60.5016 559.265C37.3705 551.019 29.4981 525.106 21.3766 503.453C13.9778 482.926 9.09874 461.762 5.50164 440.265C3.1099 426.157 2.06616 411.919 1.31411 397.64C0.491663 382.043 0.310548 366.426 1.25161 350.828C3.74551 309.302 12.4887 268.534 26.4133 229.357C39.0734 193.404 58.1962 162.222 81.6266 132.703C86.5746 126.537 91.6994 120.632 97.0954 114.856C99.0804 112.719 100.991 110.551 102.877 108.328C110.388 99.6764 118.741 91.6387 127.502 84.2659C128.876 83.0574 128.876 83.0574 130.279 81.8245C138.897 74.296 148.055 67.7109 157.502 61.2659C158.224 60.7704 158.946 60.2749 159.69 59.7644C166.829 54.8753 173.944 49.8326 181.626 45.8283C182.274 45.487 182.921 45.1457 183.588 44.7941C222 24.7859 259.029 12.3177 301.063 5.20324C358.761 -4.49867 421.833 1.67294 476.497 24.2345Z" fill="#F2402D" stroke="#F2402D"/>
<path d="M502.509 35.5604C513.383 40.9625 523.87 46.9447 534.117 53.7745C534.781 54.2161 535.445 54.6578 536.13 55.1129C536.712 55.5048 537.294 55.8968 537.893 56.3006C564.434 73.3246 588.98 94.4321 608.508 119.265C609.45 120.419 610.394 121.571 611.34 122.722C637.647 154.859 657.805 192.26 670.678 231.725L431.504 332.766C428.485 321.133 423.25 310.152 415.24 300.543C413.043 298.069 410.799 295.655 408.51 293.266C407.685 292.379 406.859 291.492 406.009 290.578C399.114 284.2 391.876 279.195 384.274 275.37L502.509 35.5604Z" fill="#F89E1B" stroke="#F89E1B"/>
<path d="M670.678 231.725C680.207 260.862 686.281 290.831 687.774 321.308C689.962 367.321 686.113 407.552 674.009 451.58L433.01 376.57C436.298 362.318 435.153 346.826 431.504 332.766L670.678 231.725Z" fill="#FAC11A" stroke="#FAC11A"/>
<path d="M674.009 451.58C668.205 472.69 660.661 493.198 651.509 513.266C640.121 538.412 626.22 562.272 609.508 584.266C595.164 603.416 578 621.5 561.5 638C561.5 638 547.855 650.223 522.853 667.266L375.509 441.764C386.115 437.39 395.494 431.223 404.306 423.961C418.684 411.53 428.762 394.973 433.01 376.57L674.009 451.58Z" fill="#1A947A" stroke="#1A947A"/>
<path d="M522.853 667.266C464 698.5 379.522 737.958 302.35 721C282.068 716.206 264.145 706.78 248.275 693.379C189.41 639.106 229.898 538.697 271.509 491.266C299.635 457.149 337.537 457.425 375.509 441.764L522.853 667.266Z" fill="#0B7FB5" stroke="#0B7FB5"/>
</svg>
